PathFileType	4	(X/Y/Z)	TVC_9_Cal_03_0_static_RCNL2025.trc
DataRate	CameraRate	NumFrames	NumMarkers	Units	OrigDataRate	OrigDataStartFrame	OrigNumFrames
100	100	9	27	mm	100	33	260
Frame#	Time	R_Shoulder			L_Shoulder			C7			J_Notch			R_Elbow			L_Elbow			R_Wrist			L_Wrist			R_Asis			L_Asis			R_Psis			L_Psis			Sacral			Thoracic			Sternum			R_Thigh_Lateral			R_Knee_Lateral			R_Shank_Lateral			R_Ankle_Lateral			R_Heel			R_Toe			L_Thigh_Lateral			L_Knee_Lateral			L_Shank_Lateral			L_Ankle_Lateral			L_Heel			L_Toe		
		X1	Y1	Z1	X2	Y2	Z2	X3	Y3	Z3	X4	Y4	Z4	X5	Y5	Z5	X6	Y6	Z6	X7	Y7	Z7	X8	Y8	Z8	X9	Y9	Z9	X10	Y10	Z10	X11	Y11	Z11	X12	Y12	Z12	X13	Y13	Z13	X14	Y14	Z14	X15	Y15	Z15	X16	Y16	Z16	X17	Y17	Z17	X18	Y18	Z18	X19	Y19	Z19	X20	Y20	Z20	X21	Y21	Z21	X22	Y22	Z22	X23	Y23	Z23	X24	Y24	Z24	X25	Y25	Z25	X26	Y26	Z26	X27	Y27	Z27
33	0.32000000	-186.895447	1387.474854	-117.074364	-304.761993	1364.533325	-491.501556	-307.584167	1446.347412	-298.945465	-157.406448	1340.964600	-319.006927	-203.095688	1108.011353	60.220982	-306.831207	1039.114258	-592.172241	-142.107224	869.275757	45.442821	-231.861984	805.520813	-569.833252	-169.396942	936.962646	-130.500595	-234.819931	935.649109	-434.750793	-383.615143	953.475037	-193.916153	-402.169678	950.911743	-290.763031	-392.892410	952.193390	-242.339592	-398.124481	1168.452759	-253.596039	-107.591103	1148.587769	-319.146576	-250.418823	539.309631	-53.965939	-290.759277	443.211487	-114.803490	-268.721619	302.426727	-70.220772	-301.289490	74.272873	-140.039505	-355.146790	60.440285	-201.666794	-172.076828	48.977180	-179.533798	-235.810089	569.612244	-465.431549	-252.952835	419.757294	-412.336365	-273.395447	304.158447	-456.138977	-308.779419	79.957115	-378.805481	-353.968628	53.700600	-315.629425	-167.889450	44.249798	-372.534241
34	0.33000000	-186.993149	1387.590820	-117.024658	-304.771851	1364.497314	-491.479492	-307.668121	1446.332031	-298.858368	-157.391571	1340.960938	-319.032043	-203.151505	1107.937012	60.240681	-306.724609	1039.184814	-592.247620	-142.170433	869.217377	45.670782	-231.807251	805.524597	-569.728882	-169.461655	936.964966	-130.440308	-234.796478	935.596130	-434.744232	-383.703247	953.415344	-193.867737	-402.143585	950.892395	-290.773926	-392.923416	952.153870	-242.320831	-398.134033	1168.451294	-253.596573	-107.710548	1148.503540	-318.986145	-250.250809	539.193115	-53.950218	-290.779266	443.041351	-114.756622	-268.781738	302.406036	-70.174866	-301.306854	74.277122	-140.039291	-355.137177	60.423088	-201.647873	-172.043076	48.978683	-179.472992	-235.773407	569.580078	-465.470795	-252.930252	419.803741	-412.327179	-273.241760	304.139923	-456.115326	-308.727753	80.034363	-379.086121	-353.944092	53.653057	-315.547729	-167.942169	44.287819	-372.561890
35	0.34000000	-187.100296	1387.429077	-116.958603	-304.762512	1364.542725	-491.482666	-307.655396	1446.378540	-299.112579	-157.462585	1340.897217	-318.961975	-203.183990	1107.932007	60.378510	-306.668640	1039.083618	-592.449829	-142.266998	869.193665	45.842359	-231.794579	805.523071	-569.618317	-168.765274	937.481934	-130.530441	-234.789291	935.600708	-434.769989	-383.684753	953.364807	-193.885330	-402.091339	950.894043	-290.717407	-392.888046	952.129425	-242.301369	-398.103058	1168.399170	-253.624634	-107.745483	1148.448975	-318.995819	-250.222137	539.190674	-53.896366	-290.878876	443.213745	-114.748352	-268.813202	302.340240	-70.211220	-301.336273	74.283272	-140.002487	-355.138824	60.425087	-201.671799	-172.033493	48.951141	-179.455292	-235.701279	569.556763	-465.456116	-252.985413	419.776459	-412.331665	-273.278381	304.127411	-456.038879	-308.782288	79.992188	-378.829742	-354.033905	53.700134	-315.587708	-167.979218	44.330463	-372.524841
36	0.35000000	-187.130676	1387.374756	-116.930923	-304.828156	1364.477295	-491.504486	-307.619415	1446.334351	-299.189606	-157.545700	1340.871338	-319.018616	-203.248993	1107.856201	60.414101	-306.653625	1039.155151	-592.426819	-142.294350	869.181213	46.040663	-231.788239	805.509491	-569.511871	-169.183762	937.048157	-130.434448	-234.813400	935.616943	-434.743256	-383.664246	953.361755	-193.985062	-402.064301	950.874695	-290.695038	-392.864273	952.118225	-242.340050	-398.098022	1168.395142	-253.627701	-107.738945	1148.429443	-318.982880	-250.466568	539.295959	-53.778778	-291.015594	443.282166	-114.736931	-268.949921	302.370483	-70.137558	-301.339417	74.276543	-140.014374	-355.183807	60.360294	-201.591751	-172.049301	48.974503	-179.449448	-235.778854	569.583496	-465.375946	-253.076248	419.822571	-412.295197	-273.288879	304.055359	-456.090057	-308.789703	79.957184	-378.822937	-354.041901	53.693779	-315.585358	-167.997498	44.361698	-372.527344
37	0.36000000	-187.069611	1387.258911	-116.988785	-304.937805	1364.511841	-491.457275	-307.743469	1446.280762	-298.904572	-157.570724	1340.932251	-318.986053	-203.289978	1107.827148	60.439804	-306.638550	1039.152710	-592.451904	-142.289093	869.130554	46.199308	-231.766373	805.550354	-569.341888	-169.415359	936.980896	-130.353790	-235.034729	935.352539	-434.375458	-383.599457	953.383789	-193.918030	-402.033386	950.811584	-290.648529	-392.816422	952.097687	-242.283279	-398.134064	1168.355591	-253.715317	-107.708549	1148.461792	-319.029602	-250.637161	539.333923	-53.831852	-291.120392	443.296631	-114.694321	-268.716858	302.256317	-70.099892	-301.389709	74.342941	-140.016266	-355.279449	60.457214	-201.681000	-172.068588	49.022671	-179.414551	-235.802811	569.574036	-465.348450	-253.163071	419.814941	-412.285004	-273.282166	303.794830	-456.320251	-308.775757	79.938095	-378.831177	-353.994476	53.694965	-315.508972	-168.012573	44.374146	-372.506165
38	0.37000000	-187.147522	1387.205444	-116.934845	-304.942017	1364.525024	-491.480438	-307.796082	1446.375000	-299.040558	-157.629639	1340.973389	-318.931976	-203.244141	1107.779785	60.493145	-306.559204	1039.198975	-592.523071	-142.355042	869.077179	46.338278	-231.701668	805.617371	-569.226929	-169.473129	937.008972	-130.337128	-234.792755	935.599121	-434.599731	-383.540985	953.222595	-193.714279	-401.943085	950.858337	-290.646027	-392.742035	952.040466	-242.180153	-398.136810	1168.354858	-253.742081	-107.678413	1148.569824	-319.000641	-250.768265	539.344116	-53.741871	-291.197601	443.295868	-114.782959	-268.708160	302.256622	-70.042191	-301.343414	74.261406	-140.005295	-355.172363	60.433113	-201.706833	-172.071396	49.025745	-179.410873	-235.866684	569.586609	-465.346985	-253.197678	419.808380	-412.239746	-273.287720	303.725647	-456.236816	-308.728027	80.001869	-379.067596	-354.088623	53.805088	-315.561096	-168.004410	44.375286	-372.488831
39	0.38000000	-187.179092	1387.226440	-116.883423	-305.007507	1364.572876	-491.373962	-307.799805	1446.337524	-299.055908	-157.655045	1340.990112	-318.907013	-203.219543	1107.778687	60.500008	-306.347931	1039.298340	-592.574341	-142.349709	869.125671	46.424387	-231.670204	805.605896	-569.124908	-169.457947	937.056519	-130.391159	-234.642929	935.738403	-434.690277	-383.535370	953.209839	-193.700562	-401.965942	950.780762	-290.613220	-392.750656	951.995300	-242.156891	-398.218994	1168.306763	-253.683029	-107.647781	1148.642822	-318.972504	-250.864761	539.466919	-53.863628	-291.243713	443.299744	-114.734505	-269.111053	302.310486	-70.010414	-300.875000	74.162086	-140.480560	-355.225525	60.458149	-201.664413	-172.069916	49.024006	-179.412567	-235.787170	569.673340	-465.271820	-253.160278	419.874176	-412.259277	-273.336639	304.127594	-456.082153	-308.721954	80.028824	-379.059021	-354.151184	53.850449	-315.565826	-168.026138	44.354275	-372.486969
40	0.39000000	-187.294296	1387.242676	-116.765297	-305.082672	1364.616577	-491.357788	-307.948059	1446.344360	-298.738037	-157.720749	1341.053223	-318.912292	-203.301559	1107.798340	60.556293	-306.187531	1039.369751	-592.676208	-142.474220	869.104889	46.357914	-231.622070	805.668732	-568.952240	-169.504654	937.155945	-130.341141	-234.580887	935.578064	-434.520538	-383.534302	953.426636	-193.688858	-401.954407	950.766846	-290.658997	-392.744354	952.096741	-242.173927	-398.313263	1168.366455	-253.685196	-107.687019	1148.734497	-318.965271	-250.905579	539.542297	-53.748032	-291.249878	443.315613	-114.703804	-269.264679	302.370911	-69.958664	-301.098511	74.234123	-140.195190	-355.199890	60.423367	-201.628479	-172.069397	49.023716	-179.413025	-235.769104	569.647461	-465.248444	-253.064697	419.814911	-412.220123	-273.418335	304.157898	-456.151611	-308.736786	80.048286	-379.051483	-354.055634	53.877850	-315.569733	-167.901199	44.322803	-372.454529
41	0.40000000	-187.254730	1387.161621	-116.887466	-305.220886	1364.665039	-491.302338	-308.014099	1446.354248	-298.886200	-157.743332	1341.050903	-318.873474	-203.249069	1107.853882	60.528400	-306.030182	1039.465332	-592.660950	-142.434662	869.155670	46.414845	-231.647141	805.707977	-568.784424	-169.533340	937.081421	-130.279755	-234.614609	935.766174	-434.494019	-383.604980	953.292847	-193.550598	-401.950775	950.762085	-290.663635	-392.777878	952.027466	-242.107117	-398.338623	1168.382812	-253.680710	-107.722984	1148.703003	-318.915375	-250.904480	539.499695	-53.693886	-291.209625	443.296631	-114.691246	-268.886200	302.228424	-69.935730	-301.331207	74.272026	-140.012909	-355.147369	60.435619	-201.637939	-172.053955	48.998154	-179.419968	-235.608353	569.648132	-465.243286	-253.048645	419.830078	-412.212921	-273.452087	304.243164	-456.219849	-308.792389	79.980392	-378.792969	-354.016174	53.862457	-315.651306	-167.897324	44.341743	-372.428833
